<mxfile host="app.diagrams.net" modified="2023-05-29T00:29:01.290Z" agent="5.0 (Windows NT 10.0; Win64; x64) AppleWebKit/537.36 (KHTML, like Gecko) Chrome/113.0.0.0 Safari/537.36" etag="lH2gphxxp-G-e-hY6Ax8" version="20.8.23" type="github">
  <diagram name="Página-1" id="y8CgLz8XZi91s6QwMae2">
    <mxGraphModel dx="1185" dy="453" grid="1" gridSize="10" guides="1" tooltips="1" connect="1" arrows="1" fold="1" page="1" pageScale="1" pageWidth="827" pageHeight="1169" math="0" shadow="0">
      <root>
        <mxCell id="0" />
        <mxCell id="1" parent="0" />
        <mxCell id="1lMNCqIfrnsWq8C6H22M-14" style="edgeStyle=orthogonalEdgeStyle;rounded=0;orthogonalLoop=1;jettySize=auto;html=1;entryX=0.069;entryY=0.013;entryDx=0;entryDy=0;entryPerimeter=0;fontSize=10;" edge="1" parent="1" source="1lMNCqIfrnsWq8C6H22M-1" target="1lMNCqIfrnsWq8C6H22M-13">
          <mxGeometry relative="1" as="geometry" />
        </mxCell>
        <mxCell id="1lMNCqIfrnsWq8C6H22M-1" value="Verifica os botões" style="ellipse;whiteSpace=wrap;html=1;aspect=fixed;" vertex="1" parent="1">
          <mxGeometry x="170" y="330" width="80" height="80" as="geometry" />
        </mxCell>
        <mxCell id="1lMNCqIfrnsWq8C6H22M-2" value="Processo 1" style="text;html=1;strokeColor=none;fillColor=none;align=center;verticalAlign=middle;whiteSpace=wrap;rounded=0;" vertex="1" parent="1">
          <mxGeometry x="180" y="300" width="60" height="30" as="geometry" />
        </mxCell>
        <mxCell id="1lMNCqIfrnsWq8C6H22M-17" style="edgeStyle=orthogonalEdgeStyle;rounded=0;orthogonalLoop=1;jettySize=auto;html=1;entryX=0.5;entryY=1;entryDx=0;entryDy=0;fontSize=10;" edge="1" parent="1" source="1lMNCqIfrnsWq8C6H22M-3" target="1lMNCqIfrnsWq8C6H22M-16">
          <mxGeometry relative="1" as="geometry">
            <Array as="points">
              <mxPoint x="300" y="370" />
              <mxPoint x="300" y="290" />
              <mxPoint x="364" y="290" />
            </Array>
          </mxGeometry>
        </mxCell>
        <mxCell id="1lMNCqIfrnsWq8C6H22M-22" style="edgeStyle=orthogonalEdgeStyle;rounded=0;orthogonalLoop=1;jettySize=auto;html=1;entryX=0;entryY=0.5;entryDx=0;entryDy=0;fontSize=10;exitX=0.5;exitY=1;exitDx=0;exitDy=0;" edge="1" parent="1" source="1lMNCqIfrnsWq8C6H22M-3" target="1lMNCqIfrnsWq8C6H22M-21">
          <mxGeometry relative="1" as="geometry">
            <Array as="points">
              <mxPoint x="364" y="478" />
            </Array>
          </mxGeometry>
        </mxCell>
        <mxCell id="1lMNCqIfrnsWq8C6H22M-3" value="Contagem de tempo" style="ellipse;whiteSpace=wrap;html=1;aspect=fixed;" vertex="1" parent="1">
          <mxGeometry x="324" y="330" width="80" height="80" as="geometry" />
        </mxCell>
        <mxCell id="1lMNCqIfrnsWq8C6H22M-4" value="Processo 2" style="text;html=1;strokeColor=none;fillColor=none;align=center;verticalAlign=middle;whiteSpace=wrap;rounded=0;" vertex="1" parent="1">
          <mxGeometry x="334" y="300" width="60" height="30" as="geometry" />
        </mxCell>
        <mxCell id="1lMNCqIfrnsWq8C6H22M-5" value="Exibe infos no LCD" style="ellipse;whiteSpace=wrap;html=1;aspect=fixed;" vertex="1" parent="1">
          <mxGeometry x="630" y="330" width="80" height="80" as="geometry" />
        </mxCell>
        <mxCell id="1lMNCqIfrnsWq8C6H22M-6" value="Processo 4" style="text;html=1;strokeColor=none;fillColor=none;align=center;verticalAlign=middle;whiteSpace=wrap;rounded=0;" vertex="1" parent="1">
          <mxGeometry x="640" y="300" width="60" height="30" as="geometry" />
        </mxCell>
        <mxCell id="1lMNCqIfrnsWq8C6H22M-10" style="edgeStyle=orthogonalEdgeStyle;rounded=0;orthogonalLoop=1;jettySize=auto;html=1;" edge="1" parent="1" source="1lMNCqIfrnsWq8C6H22M-8" target="1lMNCqIfrnsWq8C6H22M-1">
          <mxGeometry relative="1" as="geometry" />
        </mxCell>
        <mxCell id="1lMNCqIfrnsWq8C6H22M-8" value="Iniciar&lt;br style=&quot;border-color: var(--border-color);&quot;&gt;Parar&lt;br style=&quot;border-color: var(--border-color);&quot;&gt;Zerar&lt;br style=&quot;border-color: var(--border-color);&quot;&gt;Parcial01&lt;br style=&quot;border-color: var(--border-color);&quot;&gt;Parcial02" style="rounded=1;whiteSpace=wrap;html=1;" vertex="1" parent="1">
          <mxGeometry x="40" y="320" width="80" height="100" as="geometry" />
        </mxCell>
        <mxCell id="1lMNCqIfrnsWq8C6H22M-9" value="Botões" style="text;html=1;strokeColor=none;fillColor=none;align=center;verticalAlign=middle;whiteSpace=wrap;rounded=0;" vertex="1" parent="1">
          <mxGeometry x="50" y="290" width="60" height="30" as="geometry" />
        </mxCell>
        <mxCell id="1lMNCqIfrnsWq8C6H22M-11" value="&lt;font style=&quot;font-size: 10px;&quot;&gt;Lógica da contagem cfm btn pressionado&lt;/font&gt;" style="ellipse;whiteSpace=wrap;html=1;aspect=fixed;" vertex="1" parent="1">
          <mxGeometry x="470" y="330" width="80" height="80" as="geometry" />
        </mxCell>
        <mxCell id="1lMNCqIfrnsWq8C6H22M-12" value="Processo 3" style="text;html=1;strokeColor=none;fillColor=none;align=center;verticalAlign=middle;whiteSpace=wrap;rounded=0;" vertex="1" parent="1">
          <mxGeometry x="480" y="300" width="60" height="30" as="geometry" />
        </mxCell>
        <mxCell id="1lMNCqIfrnsWq8C6H22M-15" style="edgeStyle=orthogonalEdgeStyle;rounded=0;orthogonalLoop=1;jettySize=auto;html=1;exitX=1;exitY=0.5;exitDx=0;exitDy=0;entryX=0.5;entryY=1;entryDx=0;entryDy=0;fontSize=10;" edge="1" parent="1" source="1lMNCqIfrnsWq8C6H22M-13" target="1lMNCqIfrnsWq8C6H22M-11">
          <mxGeometry relative="1" as="geometry" />
        </mxCell>
        <mxCell id="1lMNCqIfrnsWq8C6H22M-13" value="MUTEX 1&lt;br&gt;start, stop, reset, p1, p2" style="shape=rect;html=1;whiteSpace=wrap;align=center;fontSize=10;" vertex="1" parent="1">
          <mxGeometry x="201" y="460" width="130" height="55" as="geometry" />
        </mxCell>
        <mxCell id="1lMNCqIfrnsWq8C6H22M-18" style="edgeStyle=orthogonalEdgeStyle;rounded=0;orthogonalLoop=1;jettySize=auto;html=1;entryX=0;entryY=0.5;entryDx=0;entryDy=0;fontSize=10;" edge="1" parent="1" source="1lMNCqIfrnsWq8C6H22M-16" target="1lMNCqIfrnsWq8C6H22M-11">
          <mxGeometry relative="1" as="geometry">
            <Array as="points">
              <mxPoint x="440" y="248" />
              <mxPoint x="440" y="370" />
            </Array>
          </mxGeometry>
        </mxCell>
        <mxCell id="1lMNCqIfrnsWq8C6H22M-16" value="MUTEX 2&lt;br&gt;hora, minuto, segundo" style="shape=rect;html=1;whiteSpace=wrap;align=center;fontSize=10;" vertex="1" parent="1">
          <mxGeometry x="299" y="220" width="130" height="55" as="geometry" />
        </mxCell>
        <mxCell id="1lMNCqIfrnsWq8C6H22M-19" value="MUTEX 2&lt;br&gt;hora, minuto, segundo" style="shape=rect;html=1;whiteSpace=wrap;align=center;fontSize=10;" vertex="1" parent="1">
          <mxGeometry x="201" y="650" width="130" height="55" as="geometry" />
        </mxCell>
        <mxCell id="1lMNCqIfrnsWq8C6H22M-23" style="edgeStyle=orthogonalEdgeStyle;rounded=0;orthogonalLoop=1;jettySize=auto;html=1;exitX=1;exitY=0.5;exitDx=0;exitDy=0;entryX=0.5;entryY=1;entryDx=0;entryDy=0;fontSize=10;" edge="1" parent="1" source="1lMNCqIfrnsWq8C6H22M-21" target="1lMNCqIfrnsWq8C6H22M-5">
          <mxGeometry relative="1" as="geometry" />
        </mxCell>
        <mxCell id="1lMNCqIfrnsWq8C6H22M-21" value="MUTEX 3&lt;br&gt;parcial01&lt;br&gt;parcial02" style="shape=rect;html=1;whiteSpace=wrap;align=center;fontSize=10;" vertex="1" parent="1">
          <mxGeometry x="560" y="450" width="130" height="55" as="geometry" />
        </mxCell>
      </root>
    </mxGraphModel>
  </diagram>
</mxfile>
